<svg viewBox="0 0 24 24" xmlns="http://www.w3.org/2000/svg">
  <defs>
    <linearGradient id="adpGrad" x1="0%" y1="0%" x2="100%" y2="100%">
      <stop offset="0%" style="stop-color:#E31E24;stop-opacity:1" />
      <stop offset="100%" style="stop-color:#C41E3A;stop-opacity:1" />
    </linearGradient>
  </defs>
  <rect width="24" height="24" rx="5" fill="url(#adpGrad)"/>
  <g fill="white">
    <path d="M5 7h3l4 10h-2.5l-.8-2H6.3l-.8 2H3l2-10zm1.5 6h1l-.5-1.5-.5 1.5z"/>
    <path d="M12 7h3c2 0 3.5 1.5 3.5 3.5v3c0 2-1.5 3.5-3.5 3.5h-3V7zm2 8h1c.8 0 1.5-.7 1.5-1.5v-3c0-.8-.7-1.5-1.5-1.5h-1v6z"/>
    <path d="M19 7h3v2h-3v1.5h2.5v2H19v1.5h3v2h-3c-1 0-1.5-.5-1.5-1.5V8.5c0-1 .5-1.5 1.5-1.5z" transform="translate(-1,0)"/>
  </g>
</svg>