<svg viewBox="0 0 24 24" xmlns="http://www.w3.org/2000/svg">
      <path d="M8.32 23.295l.84-5.32h2.24c2.36 0 4.12-.48 5.28-1.44 1.08-.88 1.6-2.16 1.6-3.84 0-1.36-.4-2.4-1.2-3.12-.8-.72-2.04-1.08-3.72-1.08h-4.8L6.32 23.295H8.32z" fill="#003087"/>
      <path d="M18.72 8.215c0 1.68-.52 2.96-1.6 3.84-1.16.96-2.92 1.44-5.28 1.44h-2.24l-.84 5.32h1.68L12.72 8.215c1.68 0 2.92.36 3.72 1.08.8.72 1.2 1.76 1.2 3.12-.08 0-.08-.085-.08-.085z" fill="#0070E0"/>
      <path d="M12.72 8.215h-4.4l-1.84 10.56H8.16l.84-5.32h2.24c2.36 0 4.12-.48 5.28-1.44.32-.24.6-.52.84-.84l.36-2.96z" fill="#009CDE"/>
    </svg>