<svg viewBox="0 0 24 24" xmlns="http://www.w3.org/2000/svg">
  <defs>
    <linearGradient id="grad" x1="0%" y1="0%" x2="100%" y2="100%">
      <stop offset="0%" style="stop-color:#95BF47;stop-opacity:1" />
      <stop offset="100%" style="stop-color:#7AB83A;stop-opacity:1" />
    </linearGradient>
  </defs>
  <rect width="24" height="24" rx="4" fill="url(#grad)"/>
           <g fill="white">
             <path d="M12 4c-2 0-4 1.5-4 3.5v1.5c0 .5.5 1 1 1h6c.5 0 1-.5 1-1V7.5C16 5.5 14 4 12 4z"/>
             <path d="M8 10v6c0 1 1 2 2 2h4c1 0 2-1 2-2v-6l-1 1-3-1-3 1-1-1z"/>
             <circle cx="12" cy="14" r="1.5"/>
             <circle cx="19" cy="5" r="1.5" fill="#5E8E3E"/>
           </g>
</svg>