<svg viewBox="0 0 24 24" xmlns="http://www.w3.org/2000/svg">
      <path d="M19.688 9.5c-.12-.04-.44-.12-.44-.12s-.28-2.64-3.64-2.64c-.32 0-.68.04-1.04.12-.08-.28-.2-.6-.36-.96C13.44 4.4 12.4 3.8 11.2 3.8c-2.6 0-3.88 3.24-4.28 4.88-1.32.4-2.24.68-2.36.72C4.2 9.52 4.16 9.64 4.12 10L2.8 21.6l13.84 2.56 5.56-14.32c0-.04-.36-.32-.52-.32z" fill="#95BF47"/>
      <path d="M19.688 9.5s-.32-.08-.44-.12-.28-2.64-3.64-2.64c-.32 0-.68.04-1.04.12l-3.08 14.76 5.56-14.32c0-.04-.36-.32-.52-.32z" fill="#7AB83A"/>
    </svg>