<svg viewBox="0 0 24 24" xmlns="http://www.w3.org/2000/svg">
      <path d="M6 15a2 2 0 0 1-2-2v-2a2 2 0 0 1 4 0v2a2 2 0 0 1-2 2zm0-8a2 2 0 0 1 2 2v2a2 2 0 0 1-4 0V9a2 2 0 0 1 2-2z" fill="#E01E5A"/>
      <path d="M9 6a2 2 0 0 1 2-2h2a2 2 0 0 1 0 4h-2a2 2 0 0 1-2-2zm8 0a2 2 0 0 1-2 2h-2a2 2 0 0 1 0-4h2a2 2 0 0 1 2 2z" fill="#36C5F0"/>
      <path d="M18 9a2 2 0 0 1 2 2v2a2 2 0 0 1-4 0v-2a2 2 0 0 1 2-2zm0 8a2 2 0 0 1-2-2v-2a2 2 0 0 1 4 0v2a2 2 0 0 1-2 2z" fill="#2EB67D"/>
      <path d="M15 18a2 2 0 0 1-2 2h-2a2 2 0 0 1 0-4h2a2 2 0 0 1 2 2zm-8 0a2 2 0 0 1 2-2h2a2 2 0 0 1 0 4H9a2 2 0 0 1-2-2z" fill="#ECB22E"/>
    </svg>