<svg viewBox="0 0 24 24" xmlns="http://www.w3.org/2000/svg">
  <defs>
    <linearGradient id="grad" x1="0%" y1="0%" x2="100%" y2="100%">
      <stop offset="0%" style="stop-color:#4A154B;stop-opacity:1" />
      <stop offset="100%" style="stop-color:#611F69;stop-opacity:1" />
    </linearGradient>
  </defs>
  <rect width="24" height="24" rx="5" fill="url(#grad)"/>
           <g fill="white">
             <path d="M9 6a1.5 1.5 0 0 0-3 0v3h3V6zM18 9a1.5 1.5 0 0 0 0-3h-3v3h3z"/>
             <path d="M15 18a1.5 1.5 0 0 0 3 0v-3h-3v3zM6 15a1.5 1.5 0 0 0 0 3h3v-3H6z"/>
             <rect x="9" y="9" width="6" height="6" rx="1" opacity="0.7"/>
           </g>
</svg>