<svg viewBox="0 0 24 24" xmlns="http://www.w3.org/2000/svg">
  <defs>
    <linearGradient id="grad" x1="0%" y1="0%" x2="100%" y2="100%">
      <stop offset="0%" style="stop-color:#635BFF;stop-opacity:1" />
      <stop offset="100%" style="stop-color:#5A54E8;stop-opacity:1" />
    </linearGradient>
  </defs>
  <rect width="24" height="24" rx="5" fill="url(#grad)"/>
           <g fill="white">
             <path d="M12 7c-2 0-3.5.8-3.5 2.2 0 1.3 1 1.8 2.5 2.3 1.8.6 2.5 1.2 2.5 2.2 0 1.2-1 2.3-3.5 2.3-1.5 0-3-.5-4-1.2v2c1 .6 2.5 1.2 4 1.2 2.5 0 4-1 4-2.7 0-1.5-1-2-2.5-2.5-1.8-.6-2.5-1-2.5-2 0-1 .8-1.8 2.5-1.8 1.2 0 2.5.4 3.5.8V7.8c-1-.4-2.3-.8-3.5-.8z"/>
             <circle cx="19" cy="5" r="1.5" fill="#00D924"/>
           </g>
</svg>